<?xml version="1.0" encoding="utf-8"?>
<!-- Generator: Adobe Illustrator 15.0.0, SVG Export Plug-In . SVG Version: 6.00 Build 0)  -->
<!DOCTYPE svg PUBLIC "-//W3C//DTD SVG 1.1//EN" "http://www.w3.org/Graphics/SVG/1.1/DTD/svg11.dtd">
<svg version="1.1" id="Layer_1" xmlns="http://www.w3.org/2000/svg" xmlns:xlink="http://www.w3.org/1999/xlink" x="0px" y="0px"
	 width="290px" height="150px" viewBox="0 0 290 150" enable-background="new 0 0 290 150" xml:space="preserve">
<g>
	<polygon fill="#FFFFFF" points="156.667,78.808 123.509,47.895 123.509,100.303 133.335,100.303 133.335,71.037 166.492,101.904 
		166.492,49.359 156.667,49.359 	"/>
	<path fill="#FFFFFF" d="M80.443,47.393c-15.167,0-27.506,12.34-27.506,27.508c0,15.166,12.338,27.504,27.506,27.504
		c15.167,0,27.506-12.338,27.506-27.504C107.949,59.732,95.61,47.393,80.443,47.393 M80.443,92.519
		c-9.616,0-17.44-7.904-17.44-17.618c0-9.716,7.824-17.621,17.44-17.621c9.618,0,17.443,7.905,17.443,17.621
		C97.886,84.614,90.061,92.519,80.443,92.519"/>
	<path fill="#FFFFFF" d="M36.205,75.356c-2.61-1.991-6.042-3.6-11.163-5.227c-9.959-3.164-9.959-5.676-9.959-6.883
		c0-2.833,3.161-5.765,8.449-5.765c4.455,0,7.917,2.225,9.199,3.182l0.688,0.514l7.92-5.352l-0.863-1.027
		C40.221,54.498,34.13,47.4,23.532,47.4c-5.094,0-9.778,1.63-13.187,4.588C6.948,54.935,5,59.039,5,63.247
		c0,4.517,1.971,8.311,5.861,11.277c2.612,1.991,6.044,3.601,11.163,5.226c9.96,3.165,9.96,5.676,9.96,6.882
		c0,2.832-3.161,5.764-8.45,5.764c-4.465,0-7.919-2.225-9.198-3.181l-0.688-0.513l-7.921,5.351l0.863,1.026
		c0.254,0.301,6.345,7.398,16.943,7.398c5.094,0,9.777-1.629,13.187-4.586c3.396-2.949,5.344-7.053,5.344-11.26
		C42.064,82.116,40.093,78.321,36.205,75.356"/>
	<path fill="#FFFFFF" d="M209.557,47.596c-15.166,0-27.505,12.339-27.505,27.505c0,15.168,12.339,27.507,27.505,27.507
		c15.168,0,27.508-12.339,27.508-27.507C237.064,59.935,224.725,47.596,209.557,47.596 M209.557,92.721
		c-9.617,0-17.44-7.904-17.44-17.62c0-9.715,7.823-17.619,17.44-17.619c9.618,0,17.44,7.904,17.44,17.619
		C226.997,84.816,219.175,92.721,209.557,92.721"/>
	<path fill="#FFFFFF" d="M253.796,74.645c2.61,1.99,6.041,3.599,11.162,5.227c9.959,3.164,9.959,5.675,9.959,6.882
		c0,2.833-3.16,5.765-8.449,5.765c-4.453,0-7.918-2.225-9.197-3.181l-0.688-0.513l-7.92,5.35l0.862,1.027
		c0.255,0.301,6.345,7.399,16.942,7.399c5.095,0,9.777-1.63,13.188-4.588c3.396-2.947,5.344-7.051,5.344-11.26
		c0-4.516-1.97-8.311-5.861-11.275c-2.611-1.992-6.043-3.602-11.162-5.227c-9.959-3.165-9.959-5.675-9.959-6.882
		c0-2.833,3.16-5.764,8.448-5.764c4.466,0,7.92,2.225,9.198,3.181l0.688,0.514l7.922-5.353l-0.862-1.025
		c-0.255-0.302-6.346-7.4-16.945-7.4c-5.093,0-9.776,1.63-13.185,4.587c-3.396,2.95-5.345,7.053-5.345,11.261
		C247.937,67.884,249.906,71.679,253.796,74.645"/>
</g>
</svg>
